<svg width="512" height="512" viewBox="0 0 135.46666 135.46667" xmlns="http://www.w3.org/2000/svg">
  <g>
    <rect style="fill:#54f7ff;fill-opacity:1;stroke:none;stroke-width:0.28822;stroke-linejoin:round;stroke-miterlimit:4;stroke-dasharray:none;stroke-opacity:1" id="rect1626" width="135.46666" height="135.46666" x="0" y="-7.1054274e-15" ry="30.159018" rx="30.770063"></rect>
    <path fill="#29282e" d="m 47.264615,23.847735 c -0.969708,0.0092 -1.945487,0.118557 -2.927358,0.337417 -3.960885,0.890672 -7.256057,3.276949 -9.274519,6.718048 -2.01844,3.44109 -2.58081,7.721179 -1.51079,11.448011 l 5.234598,18.637261 c -2.361948,2.550426 -3.699478,5.939851 -3.699478,9.450851 v 11.97089 c 0.468163,17.4365 14.572924,30.580757 32.811877,30.580757 7.65124,0 14.782668,-2.36195 20.622175,-6.83052 5.514246,-4.22538 9.478177,-10.159137 11.219997,-16.789027 3.313413,-1.52599 5.453443,-4.32265 6.705853,-8.72432 l 2.29507,-8.07685 c 0.85115,-3.04897 1.03962,-7.538788 -1.00618,-10.989014 -2.72065,-4.596242 -6.66938,-6.596447 -12.046829,-6.088791 -0.908906,-2.331566 -3.25869,-5.830421 -7.964342,-6.760605 l 1.753975,-6.246865 c 1.149055,-3.617412 0.64141,-7.873174 -1.361842,-11.390274 -2.030598,-3.571811 -5.371371,-6.027999 -9.402176,-6.91259 -7.383733,-1.62327 -14.822185,2.979044 -16.937905,10.478328 l -0.24015,1.091305 -0.24014,-1.100423 C 59.472547,28.197744 53.736397,23.899409 47.489565,23.847735 h -0.221913 z m 18.11128,31.583912 5.261934,-18.229898 c 0.787313,-2.781466 3.486675,-4.526321 6.122211,-3.927481 3.966968,0.896754 4.459421,4.726943 3.894011,6.53869 l -6.17084,21.987159 C 73.318955,61.31677 72.063508,61.055346 70.792859,61.055346 H 48.380224 l -5.96109,-21.245415 c -0.735639,-2.614273 0.69612,-5.842576 3.890974,-6.535663 2.653772,-0.577558 5.340972,1.146015 6.122203,3.92139 l 5.264979,18.239035 c 1.003144,3.124956 3.839301,3.039826 3.839301,3.039826 h 0.04559 c 0.37086,0 2.848313,-0.10942 3.793703,-3.039826 z m 13.566737,26.708006 c -1.26153,-0.27357 -2.66289,-1.24329 -3.313411,-2.84528 2.735846,-1.76918 4.632697,-4.91238 4.757326,-8.50242 0.07294,-2.0671 -0.556283,-4.055152 -1.772221,-5.72706 l 1.279767,-4.501994 c 0.63533,-2.237319 2.893911,-4.274016 5.559839,-3.64173 3.374211,0.805553 4.030813,3.988265 3.471485,5.997607 l -4.422946,15.582187 c -0.638366,2.23429 -2.571689,3.73901 -4.641815,3.73901 -0.303978,0 -0.611001,-0.0305 -0.918024,-0.1003 z m 14.381414,-0.62013 c -2.845275,-0.65964 -3.714663,-3.587 -3.228291,-5.16772 0.03036,-0.0912 2.422741,-8.56625 2.46226,-8.67874 0.668756,-1.845164 2.504814,-3.495806 4.92451,-2.979032 3.082385,0.653568 3.678185,3.939622 3.149265,5.441302 l -2.292033,8.07078 c -0.434688,1.53207 -1.969805,3.41676 -4.131124,3.41676 -0.282704,0 -0.577563,-0.0305 -0.881551,-0.1034 z m -49.023263,0.73261 v -11.81281 c 0,-2.69329 2.209956,-4.547595 4.505021,-4.547595 h 21.987055 c 0.85115,0 4.809007,0.538057 4.809007,5.037015 0,4.49895 -3.966976,5.04005 -4.97012,5.04005 H 58.046869 c -1.319277,0 -2.39234,1.08217 -2.39234,2.41666 0,1.33754 1.073063,2.41972 2.39234,2.41972 h 1.340569 c 3.422841,0 6.103967,2.81792 6.103967,6.41404 v 2.53219 c 0,1.33754 1.073056,2.41971 2.395386,2.41971 1.322322,0 2.392341,-1.08217 2.392341,-2.41971 v -2.53219 c 0,-2.40146 -0.690038,-4.60534 -1.887733,-6.41404 h 2.684164 c 1.325367,3.64781 4.286154,5.46867 6.848725,6.06144 3.982176,0.91802 7.614764,-1.09131 9.435622,-3.45328 0.981862,1.16732 2.240346,1.91512 3.666025,2.44708 -2.027562,10.41752 -11.299026,17.828647 -23.196908,17.828647 -15.846605,0 -23.528244,-12.575807 -23.528244,-21.436927 z" id="path5095-8-6-7" style="fill:#46465a;fill-opacity:1;stroke-width:3.03983"></path>
  </g>
</svg>